<svg xmlns="http://www.w3.org/2000/svg"><mask id="mask0_492_267" style="mask-type:luminance" maskUnits="userSpaceOnUse" x="31" y="-219" width="796" height="491">
<path d="M677.027 -99.5209C725.007 -20.2658 765.954 41.5578 799.868 85.9499C833.783 130.342 835.727 168.139 805.703 199.34C775.678 230.541 729.934 251.41 668.47 261.947C607.006 272.485 526.226 274.542 426.13 268.12C326.035 261.699 225.273 227.15 123.845 164.474C22.4175 101.799 4.16947 47.97 69.1012 2.9873C134.033 -41.9954 180.586 -90.1983 208.761 -141.621C236.935 -193.044 310.028 -218.697 428.04 -218.58C546.052 -218.462 629.047 -178.776 677.027 -99.5209Z" fill="white"/>
</mask>
<g mask="url(#mask0_492_267)">
<path d="M677.027 -99.5209C725.007 -20.2658 765.954 41.5578 799.868 85.9499C833.783 130.342 835.727 168.139 805.703 199.34C775.678 230.541 729.934 251.41 668.47 261.947C607.006 272.485 526.226 274.542 426.13 268.12C326.035 261.699 225.273 227.15 123.845 164.474C22.4175 101.799 4.16947 47.97 69.1012 2.9873C134.033 -41.9954 180.586 -90.1983 208.761 -141.621C236.935 -193.044 310.028 -218.697 428.04 -218.58C546.052 -218.462 629.047 -178.776 677.027 -99.5209Z" fill="url(#paint0_linear_492_267)"/>
</g>
<defs>
<linearGradient id="paint0_linear_492_267" x1="0.0688477" y1="151.341" x2="149.613" y2="-325.971" gradientUnits="userSpaceOnUse">
<stop stop-color="#57B3A3"/>
<stop offset="1" stop-color="#70E6D2"/>
</linearGradient>
</defs>
</svg>