<svg xmlns="http://www.w3.org/2000/svg" width="796" height="208" fill="none" viewBox="0 0 796 208">
  <path fill="url(#a)" d="M646.027-99.52c47.98 79.254 88.927 141.078 122.841 185.47 33.915 44.392 35.859 82.189 5.835 113.39-30.025 31.201-75.769 52.07-137.233 62.607-61.464 10.538-142.244 12.595-242.34 6.173-100.095-6.421-200.857-40.97-302.285-103.646C-8.582 101.799-26.83 47.97 38.101 2.987c64.932-44.982 111.485-93.185 139.66-144.608 28.174-51.423 101.267-77.076 219.279-76.959 118.012.118 201.007 39.804 248.987 119.06Z"/>
  <defs>
    <linearGradient id="a" x1="-30.931" x2="118.613" y1="151.341" y2="-325.971" gradientUnits="userSpaceOnUse">
      <stop stop-color="#57B3A3"/>
      <stop offset="1" stop-color="#70E6D2"/>
    </linearGradient>
  </defs>
</svg>