<svg width="245" height="39" viewBox="0 0 245 39" fill="none" xmlns="http://www.w3.org/2000/svg">
<g clip-path="url(#clip0_216_793)">
<path d="M75.4686 33.7239C75.4686 36.9784 73.5868 38.9995 70.5789 38.9995C67.571 38.9995 65.7042 36.9784 65.7042 33.7239C65.7042 30.4693 67.566 28.4483 70.5689 28.4483C73.5717 28.4483 75.4686 30.4644 75.4686 33.7239ZM67.4609 33.7239C67.4609 36.1561 68.637 37.553 70.5839 37.553C72.5307 37.553 73.7169 36.1561 73.7169 33.7239C73.7169 31.2916 72.5407 29.8898 70.5839 29.8898C68.627 29.8898 67.4559 31.2867 67.4559 33.7239H67.4609ZM84.1969 34.7443H81.9698V38.841H80.3082V28.6018H84.5272C86.7544 28.6018 88.1457 29.7511 88.1457 31.6731C88.1798 32.3323 87.9791 32.9825 87.5785 33.5103C87.1779 34.0381 86.6028 34.4099 85.9536 34.561L88.7613 38.841H86.8295L84.1969 34.7443ZM81.9698 33.3672H84.3871C85.7484 33.3672 86.389 32.8223 86.389 31.6879C86.389 30.5536 85.7284 30.0136 84.3871 30.0136H81.9698V33.3672ZM100.908 37.4143V38.841H93.1906V28.6018H100.698V30.0285H94.8722V32.9759H99.4165V34.3728H94.8722V37.4143H100.908ZM114.181 33.5505V38.841H112.939L112.879 37.5382C112.299 38.4546 111.248 39.0243 109.726 39.0243C106.829 39.0243 104.932 37.0428 104.932 33.7486C104.932 30.4545 106.874 28.473 109.852 28.473C111.999 28.473 113.32 29.2309 114.116 30.8904L112.579 31.6186C112.174 30.4892 111.188 29.9145 109.887 29.9145C107.94 29.9145 106.688 31.3115 106.688 33.7486C106.688 36.1858 107.8 37.5927 109.917 37.5927C111.483 37.5927 112.689 36.8199 112.689 35.2347V34.9425H109.526V33.5505H114.181ZM128.394 33.7239C128.394 36.9784 126.513 38.9995 123.505 38.9995C120.497 38.9995 118.615 36.9784 118.615 33.7239C118.615 30.4693 120.497 28.4483 123.49 28.4483C126.482 28.4483 128.394 30.4644 128.394 33.7239ZM120.387 33.7239C120.387 36.1561 121.563 37.553 123.505 37.553C125.446 37.553 126.623 36.1611 126.623 33.7239C126.623 31.2867 125.451 29.8898 123.49 29.8898C121.528 29.8898 120.387 31.2867 120.387 33.7239ZM141.717 38.841H139.715L135.711 32.4013L134.71 30.509L134.77 32.2477V38.841H133.234V28.6018H135.236L139.24 35.0415L140.241 36.9487L140.181 35.21V28.6018H141.732L141.717 38.841ZM80.8387 7.75691C80.8387 4.17047 78.3363 2.12462 74.1473 2.12462H66.0345V20.3391H69.8231V13.3743H73.2815L77.6006 20.359H81.9248L77.0751 12.9434C79.4724 12.2003 80.8387 10.4021 80.8387 7.75691ZM73.6418 10.4616H69.8231V5.1612H73.6418C75.8739 5.1612 76.9049 5.98846 76.9049 7.8114C76.9049 9.63433 75.8739 10.4616 73.6418 10.4616ZM88.5861 6.26586C84.0818 6.26586 81.5794 8.91606 81.5794 13.4387C81.5794 17.9614 84.2019 20.6116 88.8314 20.6116C91.9794 20.6116 94.1265 19.4277 95.0173 17.2184L91.8943 16.0889C91.5039 17.1936 90.4479 17.7979 88.8314 17.7979C86.9596 17.7979 85.7334 16.8617 85.328 14.8753H95.1975C95.2664 14.3827 95.3049 13.8864 95.3126 13.3892C95.3026 8.85661 92.9303 6.26586 88.5861 6.26586ZM85.298 12.2102C85.6033 10.1148 86.7194 9.03494 88.5561 9.03494C90.3178 9.03494 91.4839 10.1396 91.7942 12.2102H85.298ZM103.766 17.7979C101.704 17.7979 100.397 16.4208 100.397 13.4685C100.397 10.5161 101.624 9.07953 103.796 9.07953C105.297 9.07953 106.168 9.93651 106.503 11.591L110.072 10.3229C109.401 8.05908 107.614 6.26586 103.686 6.26586C99.2213 6.26586 96.5788 8.91606 96.5788 13.4387C96.5788 17.9614 99.1963 20.6116 103.826 20.6116C107.364 20.6116 109.541 18.9026 110.127 16.4505L106.668 15.3558C106.388 16.9162 105.442 17.7979 103.766 17.7979ZM118.034 6.26586C113.53 6.26586 110.898 8.94082 110.898 13.4387C110.898 17.9366 113.545 20.6116 118.034 20.6116C122.524 20.6116 125.171 17.9366 125.171 13.4387C125.171 8.94082 122.524 6.26586 118.034 6.26586ZM118.034 17.7979C115.887 17.7979 114.716 16.3614 114.716 13.4387C114.716 10.5161 115.887 9.07953 118.034 9.07953C120.181 9.07953 121.353 10.5161 121.353 13.4387C121.353 16.3614 120.181 17.7979 118.034 17.7979ZM130.326 9.243L130.071 6.53831H126.758V20.3391H130.576V13.191C130.576 10.6796 132.248 9.46591 133.92 9.46591C134.532 9.44547 135.139 9.58923 135.676 9.88202L136.177 6.56803C135.709 6.34819 135.193 6.24448 134.675 6.26586C133.718 6.2089 132.77 6.47128 131.981 7.01102C131.193 7.55076 130.61 8.33666 130.326 9.243ZM146.992 8.77735C146.582 7.99311 145.954 7.34056 145.183 6.89587C144.413 6.45117 143.53 6.23267 142.638 6.26586C138.959 6.26586 136.672 8.94082 136.672 13.4685C136.672 17.9961 138.934 20.6116 142.638 20.6116C143.595 20.6418 144.541 20.395 145.359 19.9014C146.176 19.4078 146.831 18.6888 147.242 17.8326L147.413 20.3094H150.811V0.990234H146.992V8.77735ZM146.992 14.2264C146.797 16.4852 145.601 17.6939 143.784 17.6939C141.752 17.6939 140.526 16.2326 140.526 13.4189C140.526 10.6052 141.752 9.14392 143.784 9.14392C145.626 9.14392 146.787 10.4121 146.992 12.6115V14.2264ZM160.785 4.95315C163.288 4.95315 164.789 5.94387 165.75 7.92533L168.398 5.35934C166.531 2.93206 164.189 1.85712 160.755 1.85712C155.991 1.85712 153.248 4.36366 153.248 7.59343C153.248 10.63 155.195 12.1756 160.325 13.196C163.363 13.8053 164.329 14.3849 164.329 15.3756C164.329 16.7577 163.048 17.5007 160.68 17.5007C158.178 17.5007 156.441 16.8914 154.99 14.5285L152.703 17.2332C154.264 19.4425 156.636 20.6265 160.82 20.6265C165.225 20.6265 168.373 18.5856 168.373 15.1775C168.373 12.1458 166.506 10.63 161.541 9.72845C158.308 9.15383 157.307 8.49004 157.307 7.25163C157.302 5.94387 158.473 4.95315 160.785 4.95315ZM178.562 6.26586C177.57 6.23538 176.591 6.50298 175.755 7.03348C174.919 7.56397 174.264 8.33252 173.878 9.23804L173.738 6.55812H170.37V26.1349H174.168V18.0456C174.572 18.8436 175.199 19.5097 175.974 19.9647C176.75 20.4197 177.641 20.6442 178.542 20.6116C182.226 20.6116 184.508 17.9366 184.508 13.414C184.508 8.89129 182.271 6.26586 178.562 6.26586ZM177.421 17.7137C175.419 17.7137 174.188 16.1979 174.188 13.5774V13.3C174.188 10.6251 175.439 9.16374 177.421 9.16374C179.403 9.16374 180.674 10.6251 180.674 13.4387C180.674 16.2524 179.458 17.7137 177.421 17.7137ZM193.111 6.26586C188.607 6.26586 185.975 8.94082 185.975 13.4387C185.975 17.9366 188.622 20.6116 193.111 20.6116C197.601 20.6116 200.248 17.9366 200.248 13.4387C200.248 8.94082 197.596 6.26586 193.111 6.26586ZM193.111 17.7979C190.964 17.7979 189.793 16.3614 189.793 13.4387C189.793 10.5161 190.964 9.07953 193.111 9.07953C195.258 9.07953 196.43 10.5161 196.43 13.4387C196.43 16.3614 195.253 17.7979 193.111 17.7979ZM210.138 6.26586C208.046 6.26586 206.319 7.14761 205.398 8.99531L205.258 6.5185H201.83V20.3391H205.648V13.0523C205.648 10.2932 207.24 9.243 208.857 9.243C210.308 9.243 211.359 10.0158 211.359 12.3886V20.3391H215.178V11.2888C215.158 7.9501 213.041 6.26586 210.138 6.26586ZM245.001 13.3743C245.001 8.84671 242.634 6.25595 238.28 6.25595C233.775 6.25595 231.273 8.90615 231.273 13.4288C231.273 17.9515 233.891 20.6017 238.52 20.6017C241.673 20.6017 243.82 19.4178 244.711 17.2084L241.588 16.079C241.198 17.1837 240.137 17.788 238.52 17.788C236.653 17.788 235.427 16.8518 235.017 14.8654H244.886C244.953 14.3709 244.991 13.8731 245.001 13.3743ZM234.992 12.2152C235.302 10.1198 236.413 9.0399 238.255 9.0399C240.011 9.0399 241.183 10.1446 241.488 12.2152H234.992ZM227.98 4.007L225.908 6.52345C225.122 6.34351 224.317 6.25703 223.511 6.26586C219.552 6.26586 217.099 8.05908 217.099 10.957C217.071 11.7241 217.263 12.4835 217.652 13.1472C218.042 13.8109 218.614 14.3516 219.302 14.7069C217.965 15.1775 217.074 16.1137 217.074 17.4958C217.074 18.8778 217.99 19.7596 219.136 20.2549C217.435 20.671 216.599 21.6618 216.599 22.8754C216.599 24.8915 218.661 26.2736 223.461 26.2736C227.835 26.2736 230.968 24.5894 230.968 21.5776C230.968 19.1007 229.211 17.7434 226.198 17.7434H221.489C220.513 17.7434 219.897 17.3571 219.897 16.614C219.897 15.9799 220.202 15.5638 221.013 15.3706C221.836 15.5415 222.675 15.6246 223.516 15.6183C227.474 15.6183 229.902 13.8251 229.902 10.957C229.921 10.2772 229.767 9.60364 229.455 8.99787C229.143 8.3921 228.682 7.87347 228.115 7.48941L230.973 4.51723L227.98 4.007ZM221.954 20.8048H225.743C227.334 20.8048 227.835 21.2457 227.835 21.959C227.835 22.9002 226.468 23.6729 223.766 23.6729C220.918 23.6729 219.637 23.0389 219.637 22.0432C219.637 21.2506 220.333 20.8048 221.954 20.8048ZM223.511 13.2406C222.034 13.2406 220.948 12.3291 220.948 10.9223C220.948 9.51545 222.034 8.6337 223.511 8.6337C224.987 8.6337 226.053 9.54517 226.053 10.9223C226.053 12.2994 224.992 13.2455 223.511 13.2455V13.2406ZM6.57247 31.5988L3.89491 33.1493C3.84858 33.1724 3.80965 33.2078 3.78245 33.2515C3.75525 33.2952 3.74085 33.3456 3.74085 33.3969C3.74085 33.4483 3.75525 33.4986 3.78245 33.5424C3.80965 33.5861 3.84858 33.6215 3.89491 33.6446L5.96689 34.8335C6.05176 34.8832 6.14856 34.9094 6.24716 34.9094C6.34577 34.9094 6.44256 34.8832 6.52743 34.8335L9.19999 33.2781C9.24791 33.2563 9.28852 33.2214 9.31698 33.1775C9.34545 33.1336 9.36058 33.0825 9.36058 33.0304C9.36058 32.9782 9.34545 32.9271 9.31698 32.8832C9.28852 32.8393 9.24791 32.8044 9.19999 32.7827L7.12801 31.5988C7.04372 31.55 6.94786 31.5243 6.85024 31.5243C6.75262 31.5243 6.65676 31.55 6.57247 31.5988ZM13.7393 38.4744L30.2552 28.8743L28.8388 26.5015L11.1068 36.8149C11.0589 36.8367 11.0183 36.8716 10.9898 36.9155C10.9614 36.9594 10.9462 37.0105 10.9462 37.0626C10.9462 37.1148 10.9614 37.1659 10.9898 37.2098C11.0183 37.2537 11.0589 37.2886 11.1068 37.3103L13.1838 38.4942C13.2699 38.54 13.3667 38.5623 13.4643 38.5588C13.5619 38.5553 13.6569 38.5262 13.7393 38.4744ZM26.8619 38.9599L38.6983 32.104L36.1959 30.3306L24.2244 37.3004C24.1765 37.3221 24.1359 37.357 24.1074 37.4009C24.0789 37.4448 24.0638 37.4959 24.0638 37.5481C24.0638 37.6003 24.0789 37.6513 24.1074 37.6952C24.1359 37.7391 24.1765 37.774 24.2244 37.7958L26.2964 38.9797C26.384 39.0263 26.4825 39.0491 26.5819 39.0456C26.6813 39.0421 26.7779 39.0125 26.8619 38.9599ZM12.0377 31.4155L20.8662 26.2835L19.4598 23.9107L9.40019 29.761C9.35386 29.7841 9.31493 29.8195 9.28773 29.8632C9.26053 29.907 9.24613 29.9573 9.24613 30.0087C9.24613 30.06 9.26053 30.1103 9.28773 30.1541C9.31493 30.1978 9.35386 30.2332 9.40019 30.2563L11.4722 31.4403C11.5599 31.4872 11.6588 31.5097 11.7584 31.5053C11.858 31.501 11.9545 31.4699 12.0377 31.4155ZM13.8695 19.8586L12.4681 20.0964L0.271429 27.19C0.223513 27.2118 0.182908 27.2467 0.15444 27.2906C0.125973 27.3345 0.11084 27.3855 0.11084 27.4377C0.11084 27.4899 0.125973 27.541 0.15444 27.5849C0.182908 27.6288 0.223513 27.6637 0.271429 27.6854L2.34342 28.8693C2.42863 28.918 2.52529 28.9436 2.62369 28.9436C2.72208 28.9436 2.81874 28.918 2.90395 28.8693L16.9174 20.7057L13.8695 19.8586Z" fill="#092556"/>
<path d="M53.6626 18.7886L39.1737 27.1206C38.729 27.3454 38.2367 27.4626 37.7373 27.4626C37.2379 27.4626 36.7457 27.3454 36.3009 27.1206L10.0107 12.1012C9.75484 11.9752 9.55515 11.7599 9.45019 11.4968C9.42477 11.4252 9.41125 11.3499 9.41016 11.2739L9.39014 19.3186C9.40872 19.4978 9.47633 19.6687 9.58568 19.8127C9.69503 19.9567 9.84198 20.0685 10.0107 20.136L36.2709 35.1703C36.7157 35.3951 37.2079 35.5123 37.7073 35.5123C38.2067 35.5123 38.6989 35.3951 39.1437 35.1703L53.6276 26.8383C53.7907 26.7665 53.9315 26.6529 54.0353 26.5092C54.1392 26.3655 54.2023 26.1969 54.2181 26.0209L54.2482 17.9861C54.2302 18.1589 54.1667 18.3241 54.0639 18.4649C53.9611 18.6058 53.8227 18.7174 53.6626 18.7886Z" fill="#A4D2FF"/>
<path d="M37.7073 36.4881C37.0293 36.4911 36.362 36.3205 35.7704 35.9927L9.51024 20.9981C9.18886 20.8428 8.91538 20.6051 8.71823 20.3098C8.52108 20.0145 8.40745 19.6723 8.38916 19.3188L8.41919 11.279H10.4211C10.428 11.248 10.428 11.2159 10.4211 11.1849C10.4211 11.1453 10.4211 11.1849 10.5362 11.2443L36.8014 26.2539C37.094 26.391 37.4136 26.4621 37.7373 26.4621C38.061 26.4621 38.3806 26.391 38.6732 26.2539L53.1571 17.9318C53.2042 17.9081 53.2466 17.8762 53.2822 17.8376C53.2572 17.8759 53.245 17.9209 53.2472 17.9664H55.2491L55.2191 26.0012C55.2024 26.3495 55.0932 26.6872 54.9026 26.9803C54.7119 27.2734 54.4464 27.5115 54.133 27.6706L39.6441 36.0125C39.0511 36.3347 38.3836 36.4986 37.7073 36.4881ZM10.3911 19.2098C10.4215 19.2369 10.4551 19.2602 10.4912 19.2791L36.7714 34.2986C37.0635 34.4342 37.3821 34.5046 37.7048 34.5046C38.0274 34.5046 38.3461 34.4342 38.6382 34.2986L53.1521 25.9666C53.1843 25.9483 53.2145 25.9267 53.2422 25.9022V20.1758L39.6792 27.9777C39.0814 28.2901 38.4157 28.4533 37.7398 28.4533C37.0639 28.4533 36.3982 28.2901 35.8005 27.9777L10.4161 13.4735L10.3911 19.2098Z" fill="#092556"/>
<path d="M53.6527 17.1441C54.4434 17.5949 54.4484 18.333 53.6527 18.7887L39.1738 27.1208C38.729 27.3456 38.2368 27.4628 37.7374 27.4628C37.238 27.4628 36.7458 27.3456 36.301 27.1208L10.0108 12.1013C9.21505 11.6456 9.21004 10.9125 10.0108 10.4567L24.5247 2.1247C24.9686 1.89993 25.46 1.78271 25.9586 1.78271C26.4572 1.78271 26.9486 1.89993 27.3925 2.1247L53.6527 17.1441Z" fill="#1588FC"/>
<path d="M37.7373 28.4531C37.0593 28.4562 36.3921 28.2855 35.8005 27.9578L9.51024 12.9631C9.19189 12.8048 8.92201 12.5652 8.72845 12.2691C8.5349 11.973 8.42468 11.6312 8.40918 11.2789C8.42555 10.9274 8.53618 10.5866 8.72969 10.2915C8.92319 9.99635 9.19261 9.75754 9.51024 9.59959L23.9941 1.26757C24.591 0.955252 25.2559 0.791992 25.931 0.791992C26.6061 0.791992 27.271 0.955252 27.8678 1.26757L54.1531 16.287C54.4778 16.4345 54.7529 16.6711 54.9458 16.9688C55.1386 17.2665 55.2412 17.6127 55.2412 17.9663C55.2412 18.3199 55.1386 18.6661 54.9458 18.9638C54.7529 19.2614 54.4778 19.4981 54.1531 19.6456L39.6792 27.9776C39.0841 28.2991 38.4152 28.4629 37.7373 28.4531ZM10.5763 11.2739L36.8014 26.2537C37.094 26.3908 37.4136 26.4619 37.7373 26.4619C38.061 26.4619 38.3807 26.3908 38.6732 26.2537L53.092 17.9564L26.8669 2.97162C26.5785 2.8384 26.2642 2.76936 25.946 2.76936C25.6278 2.76936 25.3135 2.8384 25.0251 2.97162L10.5763 11.2739Z" fill="#092556"/>
</g>
<defs>
<clipPath id="clip0_216_793">
<rect width="245" height="39" fill="white" transform="translate(0.0012207 -0.000488281)"/>
</clipPath>
</defs>
</svg>
