<svg class="h-10" viewBox="0 0 169 51" fill="none" xmlns="http://www.w3.org/2000/svg">
<path d="M6.74343 49.7779H41.7187C45.4427 49.7779 48.4621 46.7585 48.4621 43.0345V14.6383C48.4621 12.1925 47.1403 9.94134 45.0032 8.75033L28.0108 0.855187C25.9676 -0.285493 23.4816 -0.285493 21.4385 0.855187L3.45894 8.75033C1.32185 9.94134 0 12.1891 0 14.6315V43.0479C0 46.7719 3.01945 49.7779 6.74343 49.7779Z" fill="#1f584f"></path>
<path d="M35.6306 19.1904H12.8304C8.85044 19.1904 5.62402 22.4169 5.62402 26.3968V26.9705C5.62402 30.9505 8.85044 34.1769 12.8304 34.1769H35.6306C39.6106 34.1769 42.837 30.9505 42.837 26.9705V26.3968C42.837 22.4169 39.6106 19.1904 35.6306 19.1904Z" stroke="#bacab2" stroke-width="1.71648" stroke-miterlimit="10"></path>
<path d="M31.7227 37.7947L31.7227 15.5716C31.7227 11.4323 28.3678 8.07666 24.2294 8.07666C20.091 8.07666 16.7361 11.4323 16.7361 15.5716V37.7947C16.7361 41.9341 20.091 45.2897 24.2294 45.2897C28.3678 45.2897 31.7227 41.9341 31.7227 37.7947Z" stroke="#bacab2" stroke-width="1.71648" stroke-miterlimit="10"></path>
<path d="M29.2726 26.3827C30.94 23.6149 27.3502 20.686 24.985 22.8835L24.1999 23.9135C24.1664 23.9437 24.1161 23.947 24.0792 23.9135L23.2236 22.8801C20.8584 20.6826 17.2686 23.6115 18.936 26.3793L23.6866 31.7506C23.9315 32.0156 24.3509 32.0156 24.5925 31.7506L29.2693 26.3827H29.2726Z" fill="#bacab2"></path>
<path d="M160.813 50.1486C159.309 50.1486 157.991 49.7984 156.858 49.0981C155.725 48.3772 154.85 47.3988 154.232 46.1629C153.614 44.927 153.305 43.5264 153.305 41.961C153.305 40.3955 153.614 39.0052 154.232 37.7899C154.85 36.554 155.725 35.5859 156.858 34.8856C158.011 34.1853 159.34 33.8351 160.843 33.8351C162.121 33.8351 163.233 34.0926 164.18 34.6076C165.148 35.1225 165.89 35.8434 166.405 36.7703V27.5322H169V49.7778H166.652L166.436 47.2134C166.106 47.7283 165.684 48.2124 165.169 48.6655C164.654 49.0981 164.036 49.4585 163.315 49.7469C162.594 50.0147 161.76 50.1486 160.813 50.1486ZM161.122 47.8931C162.151 47.8931 163.058 47.6459 163.84 47.1516C164.623 46.6572 165.231 45.9775 165.663 45.1124C166.096 44.2267 166.312 43.1865 166.312 41.9919C166.312 40.8178 166.096 39.7879 165.663 38.9022C165.231 38.0165 164.623 37.3265 163.84 36.8321C163.058 36.3378 162.151 36.0906 161.122 36.0906C160.112 36.0906 159.216 36.3378 158.434 36.8321C157.651 37.3265 157.043 38.0165 156.611 38.9022C156.178 39.7879 155.962 40.8178 155.962 41.9919C155.962 43.1865 156.178 44.2267 156.611 45.1124C157.043 45.9775 157.651 46.6572 158.434 47.1516C159.216 47.6459 160.112 47.8931 161.122 47.8931Z" fill="#222829"></path>
<path d="M147.085 49.778V34.2061H149.68V49.778H147.085ZM148.383 30.9001C147.868 30.9001 147.435 30.7354 147.085 30.4058C146.756 30.0556 146.591 29.6231 146.591 29.1081C146.591 28.5932 146.756 28.1812 147.085 27.8723C147.435 27.5427 147.868 27.3779 148.383 27.3779C148.877 27.3779 149.299 27.5427 149.65 27.8723C150 28.1812 150.175 28.5932 150.175 29.1081C150.175 29.6231 150 30.0556 149.65 30.4058C149.299 30.7354 148.877 30.9001 148.383 30.9001Z" fill="#222829"></path>
<path d="M125.396 49.7775L133.367 28.1499H136.117L144.057 49.7775H141.307L134.726 31.394L128.114 49.7775H125.396ZM129.041 44.2162L129.783 42.1152H139.577L140.319 44.2162H129.041Z" fill="#222829"></path>
<path d="M114.777 49.7778C113.85 49.7778 113.046 49.6336 112.367 49.3453C111.687 49.0569 111.162 48.5728 110.791 47.8931C110.441 47.1928 110.266 46.2556 110.266 45.0815V36.3996H107.547V34.2059H110.266L110.606 30.4365H112.861V34.2059H117.372V36.3996H112.861V45.0815C112.861 46.0496 113.057 46.7088 113.448 47.0589C113.839 47.3885 114.53 47.5533 115.518 47.5533H117.187V49.7778H114.777Z" fill="#222829"></path>
<path d="M100.025 50.1484C98.7272 50.1484 97.5943 49.9321 96.6263 49.4995C95.6788 49.067 94.9166 48.4697 94.3399 47.7075C93.7838 46.9248 93.4439 46.0082 93.3203 44.9577H95.9774C96.0804 45.4933 96.2967 45.9876 96.6263 46.4408C96.9558 46.8939 97.3987 47.2647 97.9548 47.5531C98.5315 47.8208 99.2319 47.9547 100.056 47.9547C100.777 47.9547 101.374 47.8517 101.848 47.6458C102.322 47.4192 102.672 47.1205 102.898 46.7498C103.145 46.379 103.269 45.9773 103.269 45.5448C103.269 44.9063 103.115 44.4222 102.806 44.0926C102.517 43.7631 102.085 43.5056 101.508 43.3202C100.931 43.1142 100.231 42.9392 99.4069 42.795C98.7272 42.6714 98.0578 42.5066 97.3987 42.3006C96.7395 42.0947 96.1525 41.8269 95.6376 41.4973C95.1226 41.1472 94.7107 40.7249 94.4017 40.2306C94.1133 39.7362 93.9691 39.1286 93.9691 38.4077C93.9691 37.522 94.1957 36.7392 94.6489 36.0595C95.102 35.3592 95.7508 34.8134 96.5954 34.422C97.4605 34.0306 98.4595 33.835 99.5923 33.835C101.261 33.835 102.61 34.2366 103.64 35.0399C104.67 35.8432 105.277 37.007 105.463 38.5312H102.898C102.795 37.7485 102.455 37.1409 101.879 36.7083C101.323 36.2552 100.55 36.0286 99.5614 36.0286C98.5933 36.0286 97.8518 36.2243 97.3369 36.6157C96.8425 37.007 96.5954 37.522 96.5954 38.1605C96.5954 38.5724 96.7292 38.9432 96.997 39.2728C97.2854 39.5817 97.6973 39.8495 98.2329 40.0761C98.789 40.3027 99.4687 40.488 100.272 40.6322C101.302 40.8176 102.239 41.0648 103.084 41.3737C103.928 41.6827 104.608 42.1462 105.123 42.7641C105.658 43.3614 105.926 44.2162 105.926 45.3285C105.926 46.2966 105.679 47.1411 105.185 47.862C104.711 48.583 104.031 49.1494 103.145 49.5613C102.26 49.9527 101.22 50.1484 100.025 50.1484Z" fill="#222829"></path>
<path d="M83.0273 49.7776V34.2057H85.3755L85.5609 37.1718C85.911 36.4715 86.3539 35.8741 86.8894 35.3798C87.4456 34.8854 88.1047 34.5044 88.8668 34.2366C89.6495 33.9688 90.5352 33.835 91.5239 33.835V36.5539H90.5661C89.907 36.5539 89.2788 36.6466 88.6814 36.8319C88.0841 36.9967 87.5486 37.2748 87.0748 37.6661C86.6217 38.0575 86.2612 38.593 85.9934 39.2728C85.7462 39.9319 85.6227 40.7558 85.6227 41.7445V49.7776H83.0273Z" fill="#222829"></path>
<path d="M76.1594 49.778V34.2061H78.7547V49.778H76.1594ZM77.457 30.9001C76.9421 30.9001 76.5095 30.7354 76.1594 30.4058C75.8298 30.0556 75.665 29.6231 75.665 29.1081C75.665 28.5932 75.8298 28.1812 76.1594 27.8723C76.5095 27.5427 76.9421 27.3779 77.457 27.3779C77.9514 27.3779 78.3736 27.5427 78.7238 27.8723C79.074 28.1812 79.249 28.5932 79.249 29.1081C79.249 29.6231 79.074 30.0556 78.7238 30.4058C78.3736 30.7354 77.9514 30.9001 77.457 30.9001Z" fill="#222829"></path>
<path d="M59.8418 49.7775V28.1499H73.0038V30.2818H62.4371V37.8823H71.428V39.9833H62.4371V49.7775H59.8418Z" fill="#222829"></path>
<path d="M153.804 22.314C152.712 22.314 151.754 22.1492 150.931 21.8197C150.127 21.4695 149.499 20.9031 149.046 20.1204C148.593 19.317 148.366 18.2254 148.366 16.8453V10.2334H145.709V6.74212H148.366L148.83 2.50928H152.537V6.74212H156.646V10.2334H152.537V16.9071C152.537 17.6074 152.692 18.0915 153.001 18.3592C153.31 18.627 153.835 18.7609 154.576 18.7609H156.615V22.314H153.804Z" fill="#222829"></path>
<path d="M128.03 22.3142V6.74234H131.707L132.016 9.27587C132.49 8.41076 133.159 7.71044 134.024 7.1749C134.91 6.63935 135.96 6.37158 137.176 6.37158C138.473 6.37158 139.565 6.63935 140.451 7.1749C141.336 7.71044 142.006 8.49315 142.459 9.52304C142.933 10.5529 143.17 11.8197 143.17 13.3233V22.3142H139.029V13.725C139.029 12.4891 138.762 11.5416 138.226 10.8825C137.711 10.2234 136.908 9.8938 135.816 9.8938C135.116 9.8938 134.488 10.0586 133.932 10.3881C133.396 10.7177 132.974 11.1915 132.665 11.8094C132.356 12.4067 132.201 13.1379 132.201 14.003V22.3142H128.03Z" fill="#222829"></path>
<path d="M115.489 22.685C114.191 22.685 113.12 22.479 112.275 22.0671C111.431 21.6345 110.803 21.0681 110.391 20.3678C109.999 19.6468 109.804 18.8538 109.804 17.9887C109.804 17.0412 110.041 16.207 110.514 15.4861C111.009 14.7652 111.74 14.1987 112.708 13.7868C113.697 13.3748 114.933 13.1688 116.416 13.1688H120.278C120.278 12.4067 120.175 11.7785 119.969 11.2841C119.763 10.7692 119.443 10.3881 119.011 10.141C118.578 9.8938 118.002 9.77021 117.281 9.77021C116.498 9.77021 115.829 9.94529 115.272 10.2955C114.737 10.625 114.407 11.14 114.284 11.8403H110.236C110.339 10.728 110.7 9.77021 111.318 8.9669C111.956 8.14299 112.79 7.50446 113.82 7.05131C114.871 6.59816 116.035 6.37158 117.312 6.37158C118.774 6.37158 120.041 6.61875 121.112 7.1131C122.183 7.60745 123.007 8.31807 123.584 9.24497C124.16 10.1719 124.449 11.315 124.449 12.6745V22.3142H120.926L120.463 19.9352C120.236 20.3472 119.969 20.7179 119.66 21.0475C119.351 21.377 118.99 21.6654 118.578 21.9126C118.166 22.1598 117.703 22.3451 117.188 22.4687C116.673 22.6129 116.107 22.685 115.489 22.685ZM116.477 19.4718C117.013 19.4718 117.487 19.3791 117.899 19.1937C118.331 18.9877 118.702 18.7199 119.011 18.3904C119.32 18.0402 119.557 17.6489 119.722 17.2163C119.907 16.7631 120.03 16.2791 120.092 15.7642V15.7333H116.91C116.271 15.7333 115.746 15.8157 115.334 15.9804C114.943 16.1246 114.654 16.3409 114.469 16.6293C114.284 16.9176 114.191 17.2472 114.191 17.618C114.191 18.0299 114.284 18.3698 114.469 18.6375C114.654 18.9053 114.922 19.1113 115.272 19.2555C115.623 19.3997 116.024 19.4718 116.477 19.4718Z" fill="#222829"></path>
<path d="M91.4766 22.3142V6.74234H95.1533L95.4622 9.27587C95.936 8.41076 96.6054 7.71044 97.4705 7.1749C98.3562 6.63935 99.4067 6.37158 100.622 6.37158C101.92 6.37158 103.011 6.63935 103.897 7.1749C104.783 7.71044 105.452 8.49315 105.905 9.52304C106.379 10.5529 106.616 11.8197 106.616 13.3233V22.3142H102.476V13.725C102.476 12.4891 102.208 11.5416 101.672 10.8825C101.158 10.2234 100.354 9.8938 99.2625 9.8938C98.5622 9.8938 97.934 10.0586 97.3778 10.3881C96.8423 10.7177 96.42 11.1915 96.1111 11.8094C95.8021 12.4067 95.6476 13.1379 95.6476 14.003V22.3142H91.4766Z" fill="#222829"></path>
<path d="M80.6754 22.685C79.11 22.685 77.7197 22.3554 76.5044 21.6963C75.3097 21.0166 74.3725 20.0794 73.6928 18.8847C73.0337 17.6694 72.7041 16.2688 72.7041 14.6828C72.7041 13.0556 73.0337 11.624 73.6928 10.3881C74.3725 9.13168 75.3097 8.15329 76.5044 7.45296C77.6991 6.73204 79.0894 6.37158 80.6754 6.37158C82.2203 6.37158 83.5694 6.71145 84.7229 7.39117C85.8764 8.0709 86.7724 8.9875 87.4109 10.141C88.0494 11.2944 88.3687 12.6024 88.3687 14.0648C88.3687 14.2708 88.3687 14.5077 88.3687 14.7755C88.3687 15.0226 88.3481 15.2801 88.3069 15.5479H75.6702V13.0144H84.1668C84.105 12.0051 83.7445 11.2121 83.0854 10.6353C82.4468 10.0586 81.6435 9.77021 80.6754 9.77021C79.9751 9.77021 79.3263 9.93499 78.7289 10.2646C78.1316 10.5735 77.6579 11.0576 77.3077 11.7167C76.9781 12.3758 76.8134 13.21 76.8134 14.2193V15.1153C76.8134 15.9598 76.9678 16.7014 77.2768 17.3399C77.6064 17.9578 78.0595 18.4419 78.6363 18.792C79.213 19.1216 79.8824 19.2864 80.6445 19.2864C81.4067 19.2864 82.0349 19.1216 82.5292 18.792C83.0442 18.4625 83.4252 18.0402 83.6724 17.5253H87.9361C87.6478 18.4934 87.1637 19.3688 86.484 20.1515C85.8043 20.9342 84.9701 21.5521 83.9814 22.0053C82.9927 22.4584 81.8907 22.685 80.6754 22.685Z" fill="#222829"></path>
<path d="M62.9783 22.3142V4.05426H56.6445V0.686523H73.4214V4.05426H67.1185V22.3142H62.9783Z" fill="#222829"></path></svg>
