<svg width="108" height="25" viewBox="0 0 108 25" fill="none" xmlns="http://www.w3.org/2000/svg">
<g clip-path="url(#clip0_313_885)">
<path d="M27.6479 12.6315C27.6479 4.63893 32.6158 0 38.9584 0C41.9605 0 44.4221 1.46063 46.0226 3.06641L43.074 6.44127C41.9426 5.3768 40.6688 4.7115 38.9614 4.7115C35.6 4.7115 33.1443 7.62066 33.1443 12.4501C33.1443 17.2795 35.6 20.2824 39.1692 20.2824C40.8766 20.2824 42.2871 19.4266 43.4362 18.1535L46.3849 21.4558C44.4547 23.7813 41.8031 24.997 38.6169 24.997C32.7316 24.997 27.6509 20.7633 27.6509 12.6315H27.6479Z" fill="#ffffff"/>
<path d="M50.1057 0.444519H65.799V5.01994H55.4625V9.85543H64.243V14.4309H55.4625V19.98H66.1612V24.5554H50.1057V0.444519Z" fill="#ffffff"/>
<path d="M76.0405 5.01994H68.9436V0.444519H88.4971V5.01994H81.4002V24.5554H76.0405V5.01994Z" fill="#ffffff"/>
<path d="M91.5823 19.98H97.1113V5.01994H91.5823V0.444519H107.997V5.01994H102.468V19.98H107.997V24.5554H91.5823V19.98Z" fill="#ffffff"/>
<path d="M19.7732 0.441528H3.90476C1.74898 0.441528 0 2.22271 0 4.41818V20.5788C0 22.7743 1.74898 24.5555 3.90476 24.5555H19.7732C21.929 24.5555 23.678 22.7743 23.678 20.5788V4.41818C23.678 2.22271 21.929 0.441528 19.7732 0.441528ZM22.1398 12.5287C13.5019 12.7495 12.0825 14.195 11.8687 22.989H11.842C11.842 23.0495 11.839 23.11 11.839 23.1735C11.839 23.11 11.839 23.0525 11.836 22.989H11.8093C11.5925 14.192 10.1732 12.7465 1.53815 12.5287V12.4683C10.1761 12.2475 11.5955 10.802 11.8093 2.008H11.8687C12.0855 10.805 13.5048 12.2505 22.1398 12.4683V12.5287Z" fill="#EE5544"/>
</g>
<defs>
<clipPath id="clip0_313_885">
<rect width="108" height="25" fill="white"/>
</clipPath>
</defs>
</svg>
